# AST/ASF file generated using VICON BodyLanguage
# -----------------------------------------------
:version 1.10
:name VICON
:units
  mass 1.0
  length 0.45
  angle deg
:documentation
   .ast/.asf automatically generated from VICON data using
   VICON BodyBuilder and BodyLanguage model FoxedUp or BRILLIANT.MOD
:root
   order TX TY TZ RX RY RZ
   axis XYZ
   position 0 0 0  
   orientation 0 0 0 
:bonedata
  begin
     id 1 
     name lhipjoint
     direction 0.528046 -0.759594 0.379717 
     length 2.39752 
     axis 0 0 0  XYZ
  end
  begin
     id 2 
     name lfemur
     direction 0.34202 -0.939693 0  
     length 7.31175  
     axis 0 0 20  XYZ
    dof rx ry rz
    limits (-160.0 20.0)
           (-70.0 70.0)
           (-60.0 70.0)
  end
  begin
     id 3 
     name ltibia
     direction 0.34202 -0.939693 0   
     length 7.52482   
     axis 0 0 20   XYZ
    dof rx
    limits (-10.0 170.0)
  end
  begin
     id 4 
     name lfoot
     direction 0.0675379 -0.185559 0.980309   
     length 2.00961   
     axis -90 7.62852e-016 20   XYZ
    dof rx rz
    limits (-45.0 90.0)
           (-70.0 20.0)
  end
  begin
     id 5 
     name ltoes
     direction 1.5352e-011 -4.22286e-011 1   
     length 1.01383   
     axis -90 7.62852e-016 20   XYZ
    dof rx
    limits (-90.0 20.0)
  end
  begin
     id 6 
     name rhipjoint
     direction -0.510274 -0.769251 0.384544   
     length 2.36742  
     axis 0 0 0  XYZ 
  end
  begin
     id 7 
     name rfemur
     direction -0.34202 -0.939693 0   
     length 7.45325   
     axis 0 0 -20   XYZ
    dof rx ry rz
    limits (-160.0 20.0)
           (-70.0 70.0)
           (-70.0 60.0)
  end
  begin
     id 8 
     name rtibia
     direction -0.34202 -0.939693 0   
     length 7.49587   
     axis 0 0 -20   XYZ
    dof rx
    limits (-10.0 170.0)
 end
 begin
     id 9 
     name rfoot
     direction -0.106475 -0.292536 0.950308   
     length 2.20898  
     axis -90 -7.62852e-016 -20   XYZ
    dof rx rz
    limits (-45.0 90.0)
           (-20.0 70.0)
  end
  begin
     id 10 
     name rtoes
     direction -1.53597e-011 -4.22023e-011 1   
     length 1.10065   
     axis -90 -7.62852e-016 -20   XYZ
    dof rx
    limits (-90.0 20.0)
  end
  begin
     id 11 
     name lowerback
     direction 0.0260024 0.998026 -0.0571652   
     length 2.11214   
     axis 0 0 0   XYZ
    dof rx ry rz
    limits (-20.0 45.0)
           (-30.0 30.0)
           (-30.0 30.0)
  end
  begin
     id 12 
     name upperback
     direction 0.0216202 0.999542 -0.0211766   
     length 2.11689   
     axis 0 0 0   XYZ
    dof rx ry rz
    limits (-20.0 45.0)
           (-30.0 30.0)
           (-30.0 30.0)
  end
  begin
     id 13 
     name thorax
     direction 0.00883312 0.999944 0.00589057   
     length 2.11821   
     axis 0 0 0   XYZ
    dof rx ry rz
    limits (-20.0 45.0)
           (-30.0 30.0)
           (-30.0 30.0)
  end
  begin
     id 14 
     name lowerneck
     direction -0.059386 0.994433 0.0870401   
     length 1.81176   
     axis 0 0 0   XYZ
    dof rx ry rz
    limits (-20.0 45.0)
           (-30.0 30.0)
           (-30.0 30.0)
  end
  begin
     id 15 
     name upperneck
     direction 0.0506457 0.97328 -0.223967   
     length 1.82382   
     axis 0 0 0   XYZ
    dof rx ry rz
    limits (-20.0 45.0)
           (-30.0 30.0)
           (-30.0 30.0)
  end
  begin
     id 16
     name head
     direction 0.0205902 0.996147 -0.0852487  
     length 1.84805  
     axis 0 0 0   XYZ
    dof rx ry rz
    limits (-20.0 45.0)
           (-30.0 30.0)
           (-30.0 30.0)
  end
  begin
     id 17 
     name lclavicle
     direction 0.949493 0.303881 -0.0782325  
     length 3.60584  
     axis 0 0 0   XYZ
    dof ry rz
    limits (-20.0 10.0)
           (0.0 20.0)
  end
  begin
     id 18 
     name lhumerus
     direction 1 -4.48965e-011 1.48782e-027   
     length 4.95681   
     axis 180 -30 -90   XYZ
    dof rx ry rz
    limits (-60.0 90.0)
           (-90.0 90.0)
           (-90.0 90.0)
  end
  begin
     id 19
     name lradius
     direction 1 -4.48952e-011 2.06528e-027   
     length 3.40915   
     axis 180 -30 -90   XYZ
    dof rx
    limits (-10.0 170.0)
  end
  begin
     id 20
     name lwrist
     direction 1 -4.48964e-011 1.28021e-027   
     length 1.70457   
     axis -1.61767e-015 90 90   XYZ
    dof ry
    limits (-180.0 0.0)
 end
  begin
     id 21 
     name lhand
     direction 1 -4.49094e-011 2.54887e-027   
     length 0.616403   
     axis -1.63363e-015 90 90   XYZ
    dof rx rz
    limits (-90.0 90.0)
           (-45.0 45.0)
  end
  begin
     id 22 
     name lfingers
     direction 1 -4.49002e-011 5.11407e-027   
     length 0.49696   
     axis -3.26723e-015 90 90   XYZ
    dof rx
    limits (0.0 90.0)
  end
  begin
     id 23
     name lthumb
     direction 0.707107 -6.34998e-011 0.707107   
     length 0.713539   
     axis -90 45 -2.25915e-014   XYZ
    dof rx rz
    limits (-45.0 45.0)
           (-45.0 45.0)
  end
  begin
     id 24 
     name rclavicle
     direction -0.937751 0.334612 -0.0930482   
     length 3.46287  
     axis 0 0 0   XYZ 
    dof ry rz
    limits (-10.0 20.0)
           (-20.0 0.0)
  end
  begin
     id 25 
     name rhumerus
     direction -1 -4.48962e-011 3.59972e-027  
     length 5.352   
     axis 180 30 90   XYZ
    dof rx ry rz
    limits (-90.0 60.0)
           (-90.0 90.0)
           (-90.0 90.0)
  end
  begin
     id 26 
     name rradius
     direction -1 -4.48987e-011 -3.76925e-027   
     length 3.43721   
     axis 180 30 90   XYZ
    dof rx
    limits (-10.0 170.0)
  end
  begin
     id 27 
     name rwrist
     direction -1 -4.48943e-011 1.28112e-027   
     length 1.7186   
     axis -1.61767e-015 -90 -90   XYZ
    dof ry
    limits (-180.0 0.0)
  end
  begin
     id 28
     name rhand
     direction -1 -4.49027e-011 2.55483e-027   
     length 0.72009   
     axis -1.63363e-015 -90 -90   XYZ
    dof rx rz
    limits (-90.0 90.0)
           (-45.0 45.0)
  end
  begin
     id 29
     name rfingers
     direction -1 -4.48827e-011 5.14506e-027   
     length 0.580555   
     axis -3.26723e-015 -90 -90   XYZ
    dof rx
    limits (0.0 90.0)
  end
  begin
     id 30
     name rthumb
     direction -0.707107 -6.34936e-011 0.707107   
     length 0.833564   
     axis -90 -45 2.25915e-014   XYZ
    dof rx rz
    limits (-45.0 45.0)
           (-45.0 45.0)
  end
:hierarchy
  begin
    root lhipjoint rhipjoint lowerback
    lhipjoint lfemur
    lfemur ltibia
    ltibia lfoot
    lfoot ltoes
    rhipjoint rfemur
    rfemur rtibia
    rtibia rfoot
    rfoot rtoes
    lowerback upperback
    upperback thorax
    thorax lowerneck lclavicle rclavicle
    lowerneck upperneck
    upperneck head
    lclavicle lhumerus
    lhumerus lradius
    lradius lwrist
    lwrist lhand lthumb
    lhand lfingers
    rclavicle rhumerus
    rhumerus rradius
    rradius rwrist
    rwrist rhand rthumb
    rhand rfingers
  end

#!OML:ASF H:\Terrain\Patient Classification 1\Terrain2\Thursday\justin.ASF
:FULLY-SPECIFIED
:DEGREES
406
root 8.51122 25.58 -4.81207 6.79929 7.50491 -0.765239
lowerback 16.7639 -1.14419 3.40112
upperback 4.4308 -0.691384 3.77294
thorax -4.65011 -0.35147 2.21129
lowerneck -13.854 -2.52028 -9.55834
upperneck 37.5507 -1.91983 3.15461
head 15.7677 -1.68431 2.74275
rclavicle 8.34896e-015 2.70347e-014
rhumerus -22.4607 -7.68016 -76.7023
rradius 46.2934
rwrist -16.9665
rhand -21.9013 11.6274
rfingers 7.12502
rthumb 4.50403 -18.3047
lclavicle 8.34896e-015 2.70347e-014
lhumerus -32.8918 -0.0612991 87.9042
lradius 36.2664
lwrist 7.87566
lhand -18.9442 19.4317
lfingers 7.12502
lthumb 7.35904 49.2837
rfemur -46.5814 -12.6932 27.5694
rtibia 59.1209
rfoot -17.7875 1.67774
rtoes 15.4004
lfemur -14.0301 -3.78029 -16.7523
ltibia 59.5819
lfoot 4.65904 -9.01058
ltoes -12.62
407
root 8.50754 25.6976 -4.75948 6.60443 7.71958 -0.790491
lowerback 16.8111 -1.13333 3.58178
upperback 4.41673 -0.642334 3.77317
thorax -4.69266 -0.328525 2.10071
lowerneck -13.6514 -2.56273 -9.66429
upperneck 37.4947 -1.99664 3.22768
head 15.701 -1.71881 2.7793
rclavicle -5.96354e-015 7.95139e-016
rhumerus -22.3719 -7.81845 -76.6291
rradius 46.458
rwrist -16.851
rhand -22.1596 12.026
rfingers 7.12502
rthumb 4.25468 -17.9113
lclavicle -5.96354e-015 7.95139e-016
lhumerus -33.0711 -0.146937 87.8854
lradius 36.3605
lwrist 7.80759
lhand -18.5729 19.5999
lfingers 7.12502
lthumb 7.71741 49.4391
rfemur -45.2084 -12.8777 27.4869
rtibia 57.5175
rfoot -17.4655 1.6416
rtoes 15.2778
lfemur -14.5031 -3.61964 -16.7441
ltibia 61.0335
lfoot 3.02626 -8.49841
ltoes -13.2743
408
root 8.50498 25.81 -4.71392 6.48302 7.88262 -0.905194
lowerback 16.8131 -1.10214 3.83199
upperback 4.36159 -0.553636 3.81053
thorax -4.7549 -0.287191 1.98186
lowerneck -13.4818 -2.57863 -9.62607
upperneck 37.5568 -1.97274 3.03817
head 15.6886 -1.72875 2.69658
rclavicle -9.93923e-015 -6.36111e-015
rhumerus -22.3035 -7.95146 -76.4993
rradius 46.5879
rwrist -16.6862
rhand -22.2578 12.2117
rfingers 7.12502
rthumb 4.15979 -17.7274
lclavicle -9.93923e-015 -6.36111e-015
lhumerus -33.2059 -0.134407 87.9092
lradius 36.3815
lwrist 7.73377
lhand -18.1756 19.521
lfingers 7.12502
lthumb 8.10084 49.3457
rfemur -43.9722 -12.9561 27.4886
rtibia 55.884
rfoot -17.0128 1.73916
rtoes 16.8534
lfemur -15.1191 -3.40357 -16.6178
ltibia 62.4508
lfoot 1.74313 -7.98064
ltoes -12.03
409
root 8.50022 25.9049 -4.67159 6.59005 7.91145 -0.696638
lowerback 16.5809 -1.03288 3.66901
upperback 4.35063 -0.505812 3.7994
thorax -4.64154 -0.261971 2.04719
lowerneck -13.5651 -2.53308 -9.65954
upperneck 37.6592 -1.81752 2.87837
head 15.748 -1.69105 2.66232
rclavicle -1.35174e-014 3.89618e-014
rhumerus -22.0694 -7.78302 -76.4335
rradius 46.7166
rwrist -16.7384
rhand -22.4357 12.3877
rfingers 7.12502
rthumb 3.988 -17.5547
lclavicle -1.35174e-014 3.89618e-014
lhumerus -33.173 0.0875564 87.9609
lradius 36.3722
lwrist 7.84421
lhand -18.0567 19.1641
lfingers 7.12502
lthumb 8.21565 48.9844
rfemur -43.0074 -12.9527 27.2008
rtibia 54.2118
rfoot -16.3621 1.8562
rtoes 17.5321
lfemur -16.0321 -2.98965 -16.8901
ltibia 63.8291
lfoot 0.825524 -7.45036
ltoes -10.104
410
root 8.49339 26.0008 -4.63005 6.64366 8.06834 -0.750001
lowerback 16.3991 -0.983296 3.83536
upperback 4.35772 -0.424778 3.81019
thorax -4.53802 -0.222358 1.94428
lowerneck -13.8096 -2.53403 -9.58023
upperneck 37.8009 -1.76207 2.75809
head 15.8725 -1.67428 2.60911
rclavicle 1.15295e-014 -1.59028e-015
rhumerus -21.8123 -7.80715 -76.4087
rradius 46.809
rwrist -16.8552
rhand -22.7355 12.7842
rfingers 7.12502
rthumb 3.69848 -17.1634
lclavicle 1.15295e-014 -1.59028e-015
lhumerus -33.0089 0.15738 87.9542
lradius 36.2407
lwrist 7.80818
lhand -18.1211 18.4606
lfingers 7.12502
lthumb 8.1535 48.2833
rfemur -42.0079 -12.9302 27.184
rtibia 52.4801
rfoot -15.6481 1.89824
rtoes 18.1707
lfemur -16.9148 -2.58135 -16.8476
ltibia 65.0878
lfoot -0.373944 -6.97008
ltoes -9.97175
